<svg width="211" height="287" viewBox="0 0 211 287" fill="none" xmlns="http://www.w3.org/2000/svg">
<path d="M95.7461 0.201838C95.0734 0.313947 93.7056 0.739963 92.719 1.14356C91.0148 1.86106 90.7682 1.9059 87.2253 2.01801C82.8753 2.19738 82.6735 2.24223 76.5744 5.06738C72.3141 7.01809 69.8251 7.8477 68.2107 7.8477C67.3362 7.8477 66.6859 8.22887 60.699 12.2648C46.864 21.5923 43.3212 24.1036 34.4193 31.0319C23.006 39.8886 19.351 43.4985 16.3015 48.947C13.9695 53.1175 12.7811 57.0637 11.6824 64.3508C10.4043 72.7142 9.9334 78.0057 9.73159 86.2121C9.57463 92.2885 9.73159 94.5755 10.7406 99.7101C11.1442 101.728 11.6151 105.338 11.8842 108.455C12.8035 119.217 14.0592 126.504 16.01 132.76L16.3239 133.791L14.1713 133.679C10.3819 133.522 7.08568 134.554 5.42638 136.437C4.77611 137.177 4.39492 137.939 3.85677 139.733C3.04955 142.312 2.06294 146.998 1.36783 151.572C-0.582972 164.397 -0.403588 170.765 2.08536 178.254C3.07197 181.258 14.3956 203.591 16.2118 206.102C17.6245 208.075 20.1134 210.407 21.1673 210.766C22.4006 211.169 23.589 210.967 26.1003 209.891C27.3336 209.376 28.5669 208.972 28.9032 209.017C29.4189 209.084 29.4862 209.196 29.5535 210.093C29.7777 214.308 30.8989 220.564 32.1994 224.824C34.8677 233.636 38.8366 240.721 47.8506 252.807C50.9898 257.022 52.2007 258.479 52.7388 258.704C53.1424 258.883 53.9272 259.399 54.5102 259.892C55.0932 260.363 55.6762 260.766 55.8108 260.766C55.9677 260.766 56.2144 261.103 56.3938 261.506C56.5507 261.888 56.9992 262.605 57.3804 263.098C57.7616 263.569 58.0755 264.107 58.0755 264.264C58.0755 264.421 58.4118 264.735 58.793 264.937C60.2057 265.654 62.2686 267.515 65.0042 270.542C68.0985 273.973 68.5246 274.309 72.4038 276.484C75.3412 278.166 76.4623 278.928 79.7136 281.529C82.5838 283.816 83.0771 284.018 87.6289 284.78C91.2166 285.363 91.6427 285.475 92.0014 285.991C92.4947 286.641 93.0105 286.686 96.2618 286.283C98.1005 286.058 99.3562 286.081 104.11 286.417C116.016 287.269 122.586 287.135 124.537 285.991C125.434 285.475 125.726 285.408 127.654 285.475C129.672 285.52 129.851 285.475 131.242 284.78C133.192 283.794 134.986 282.247 138.282 278.749C140.727 276.148 141.22 275.744 142.991 274.825C145.211 273.681 146.803 272.179 149.449 268.726C153.575 263.323 154.068 262.784 157.073 260.52C160.257 258.143 160.593 257.784 162.948 254.264C164.607 251.798 165.863 250.408 166.872 249.869C167.298 249.645 167.589 249.197 167.926 248.165C168.464 246.551 170.459 242.47 173.083 237.582C175.908 232.358 177.164 229.152 177.859 225.519C178.038 224.555 178.24 223.995 178.442 223.995C178.599 223.995 179.003 223.86 179.339 223.681C179.922 223.389 179.989 223.187 180.348 220.811C180.976 216.954 181.895 213.524 184.294 206.281C186.402 199.913 186.492 199.667 187.03 199.734C187.321 199.779 188.487 199.824 189.586 199.846C191.38 199.891 191.739 199.824 192.837 199.286C194.609 198.411 195.573 197.537 197.434 195.115C198.959 193.142 199.049 192.94 198.847 192.335C198.533 191.438 198.757 190.227 199.564 188.523C200.327 186.931 200.372 186.483 199.923 185.407C199.542 184.465 199.632 184.241 200.686 182.963C201.896 181.483 202.031 181.124 202.031 179.487C202.031 177.761 202.098 177.626 203.982 175.16C205.574 173.052 205.708 172.693 205.574 170.9C205.417 169.24 205.686 168.5 207.749 164.913C210.193 160.63 210.417 159.935 210.395 156.393C210.395 153.814 210.283 153.007 209.498 149.576L208.601 145.697L209.498 145.832C210.013 145.922 210.552 146.101 210.709 146.236C210.933 146.415 211 146.392 211 146.168C211 145.585 210.596 145.249 209.856 145.182C209.117 145.137 209.049 145.047 206.986 141.056C205.731 138.612 204.497 136.549 203.937 135.921L202.973 134.868L200.103 134.756C198.354 134.688 197.008 134.509 196.694 134.329C196.111 134.016 196.089 134.15 196.829 131.28C197.412 129.105 197.501 128.007 197.771 121.415C197.995 116.056 198.152 114.935 199.699 107.625C200.686 102.872 200.865 99.2841 200.147 97.4679C199.923 96.8625 199.789 96.3468 199.856 96.2796C199.901 96.2347 200.237 96.2796 200.573 96.4141C201.672 96.8177 201.941 96.5711 201.919 95.1361C201.919 94.1046 202.098 93.4544 202.771 91.9746C203.914 89.4857 204.183 87.7817 203.825 84.7547C203.578 82.4004 203.399 81.8399 200.618 73.8577C200.035 72.2433 198.555 67.3329 197.322 62.9831C194.564 53.252 193.869 51.1219 193.017 49.6196C192.658 48.9694 191.178 47.2654 189.653 45.7631C187.097 43.207 186.963 43.0276 187.097 42.355C187.277 41.4132 186.738 40.5836 184.743 38.6778C181.065 35.2248 175.796 32.7584 171.379 32.4221C170.594 32.3772 169.966 32.3996 169.966 32.4893C169.966 32.6014 170.168 32.8481 170.437 33.0947C171.042 33.6329 171.603 34.7091 171.424 34.9782C171.177 35.4042 170.841 35.2024 170.527 34.4625C170.37 34.0589 170.011 33.5432 169.764 33.3189C169.226 32.8481 169.114 33.0723 169.607 33.6104C170.19 34.2607 171.468 37.0634 172.657 40.2921C173.307 42.0635 173.935 43.4985 174.025 43.4985C174.114 43.4985 174.271 43.2967 174.339 43.05C174.54 42.3998 175.482 42.2204 176.043 42.7361L176.514 43.1621L176.357 41.5254C176.155 39.5522 176.446 39.2832 177.747 40.337C179.182 41.4805 180.595 41.9738 182.456 41.9962H184.093L184.653 42.9604C184.945 43.4761 185.236 44.2384 185.259 44.642C185.326 45.2922 185.259 45.4043 184.788 45.4716C184.496 45.5164 183.846 45.3819 183.353 45.1577C182.5 44.7541 182.456 44.7765 182.164 45.1801C181.985 45.4043 181.85 45.8079 181.85 46.077C181.85 46.8842 181.357 47.2429 179.384 47.8707C173.329 49.7766 168.643 53.4538 165.728 58.566L165.011 59.844L165.751 61.3687C166.468 62.8261 168.89 65.5616 170.459 66.7051C171.042 67.1311 171.065 67.176 170.773 67.9832L170.482 68.8128L171.737 69.5975C174.002 70.9877 175.953 73.4541 177.478 76.795C178.33 78.6336 178.442 78.7008 181.267 78.7008C183.285 78.7008 184.294 78.4093 188.465 76.7501C191.941 75.36 193.353 74.9339 195.08 74.8443C195.954 74.7994 196.111 74.8667 196.358 75.3375C196.515 75.6514 196.649 76.3241 196.649 76.8398C196.649 77.7591 196.627 77.7815 195.708 78.0282C195.169 78.1627 194.609 78.3196 194.452 78.3645C194.295 78.4318 192.389 78.656 190.192 78.925C185.752 79.4183 184.743 79.6874 183.039 80.8533C181.671 81.795 181.626 81.9744 182.299 84.1269C182.814 85.831 184.137 87.9386 185.505 89.3288C186.245 90.0687 186.514 90.5396 186.626 91.2346C186.694 91.7279 187.232 93.1853 187.815 94.441C188.846 96.6607 188.891 96.8177 188.869 98.6563C188.869 99.9792 188.6 101.706 188.017 104.262C187.12 108.275 186.94 110.719 187.434 112.199C187.77 113.163 187.837 113.051 186.29 114.15C185.819 114.486 185.797 114.531 186.111 116.101C186.425 117.849 186.335 118.388 185.326 120.832L184.72 122.267L185.102 124.015C185.438 125.585 185.438 125.854 185.124 127.087C184.631 128.948 184.653 129.105 185.55 129.464C186.312 129.778 186.761 130.361 186.492 130.652C186.402 130.72 186.043 130.652 185.662 130.495C185.281 130.338 184.922 130.271 184.855 130.338C184.788 130.406 185.102 132.962 185.528 136.034C186.581 143.276 187.007 147.065 187.007 148.949C187.007 150.72 187.232 150.922 188.667 150.428C190.057 149.935 190.416 149.128 190.573 145.989C190.685 143.724 190.775 143.298 191.201 142.85C191.806 142.2 192.098 141.527 192.703 139.195C193.308 136.841 193.667 136.594 196.918 136.303C199.564 136.078 201.291 136.235 201.896 136.751C203.309 137.962 205.843 142.536 206.829 145.63C207.906 149.016 208.152 150.585 208.152 154.375C208.175 159.375 207.726 160.899 203.331 170.518C198.533 180.989 197.815 183.075 197.098 188.747C196.851 190.631 196.56 192.604 196.403 193.12C195.82 195.384 194.138 197.156 192.322 197.425C191.021 197.626 189.138 196.887 188.039 195.765L187.164 194.869L187.321 193.209C187.59 190.16 187.456 183.366 187.007 177.133C186.761 173.747 186.559 169.622 186.559 167.985C186.559 166.37 186.469 165.025 186.38 165.025C186.268 165.025 185.976 165.406 185.707 165.899C185.102 166.953 185.057 169.263 185.55 171.527C185.931 173.276 185.998 183.254 185.662 187.671C185.057 195.339 183.666 202.559 181.693 208.03C181.267 209.219 180.953 209.734 180.55 209.936C179.832 210.272 179.653 210.788 177.119 220.071C174.809 228.501 173.599 232.246 172.096 235.766C170.37 239.78 169.473 241.237 164.159 248.322C159.248 254.892 158.934 255.273 148.642 266.484C137.856 278.256 134.358 281.081 127.744 283.278C122.16 285.161 116.173 285.946 107.63 285.946C101.105 285.946 96.7775 285.61 92.2705 284.758C86.3957 283.614 85.2745 282.897 71.8432 271.933C57.9409 260.587 51.4159 253.905 43.9939 243.457C39.3523 236.91 37.0876 231.887 34.5538 222.537C31.6164 211.752 28.9256 191.393 28.9256 180.025C28.9256 177.088 28.8808 176.707 28.4996 176.371C27.8942 175.832 27.6251 174.397 27.4681 170.989C27.3112 167.469 26.9076 166.303 25.6967 165.81C25.2483 165.63 24.8447 165.473 24.755 165.473C24.3962 165.473 25.2483 176.572 26.4591 187.559C27.4233 196.147 27.9166 201.192 28.1408 204.555L28.2978 206.73L26.6385 207.514C23.3423 209.084 21.0103 208.501 18.5887 205.452C15.2028 201.192 7.87048 188.12 5.42638 181.954C1.99567 173.299 1.6369 164.151 4.1707 149.173C5.13488 143.41 5.98695 139.554 6.45784 138.836C6.97356 138.052 9.5522 135.966 10.6509 135.428C11.2563 135.137 12.0412 134.98 12.8708 134.98C16.7276 134.98 18.3196 136.796 20.4049 143.5C21.4139 146.706 22.3109 148.904 23.0957 150.002C23.4769 150.541 23.7459 150.675 24.4186 150.675C25.5398 150.675 26.5488 150.316 27.8493 149.442C28.6341 148.926 28.836 148.679 28.7014 148.433C28.3875 147.94 28.4548 145.832 28.8135 144.173C28.9929 143.366 29.1274 142.289 29.1499 141.751C29.1499 140.922 29.0602 140.765 28.5445 140.54C28.1857 140.383 27.8942 140.249 27.8493 140.249C27.8269 140.226 27.9615 139.823 28.1408 139.374C28.4548 138.612 28.4548 138.433 28.0736 137.177L27.6475 135.787L28.4772 134.531C29.4862 133.074 30.2486 130.495 31.1007 125.72C31.2576 124.845 30.6971 124.935 29.9571 125.899C28.9481 127.199 27.8718 126.773 28.7014 125.406C28.9256 125.024 29.5759 124.083 30.1365 123.32C30.6971 122.558 31.3249 121.37 31.5267 120.719C32.177 118.477 31.594 117.491 30.5401 119.06C29.2396 121.011 29.262 119.509 30.5849 117.266C31.6612 115.405 31.9976 114.576 31.6388 114.576C31.1904 114.576 30.7195 113.836 30.7195 113.118C30.7195 112.648 30.5177 112.132 30.1589 111.683L29.5759 111.011L30.3831 109.912C31.4819 108.365 31.7734 107.558 31.9303 105.383C32.1321 102.984 32.6927 100.607 33.9484 96.6832C35.4059 92.2661 35.8768 90.136 36.0337 87.2211C36.1683 84.7099 36.1907 84.5978 37.11 82.961C38.276 80.8757 38.6124 79.8668 38.5451 78.7008C38.4778 78.0282 38.5899 77.6918 39.016 77.221C40.1595 76.0102 42.4467 74.5976 47.2228 72.2209C49.9135 70.8756 52.7837 69.3509 53.5685 68.8352C54.9811 67.9159 57.4028 65.6961 57.4028 65.2925C57.4028 65.2029 56.7974 64.8217 56.0574 64.4854C54.3533 63.7006 54.0394 63.1849 54.6896 62.3104L55.1829 61.6602L54.2187 61.2118C53.6806 60.9651 52.537 60.5615 51.6625 60.3149C49.622 59.7319 48.6578 59.0817 48.2318 57.983C47.9627 57.2655 47.9627 57.1086 48.2318 56.9292C49.0839 56.3911 52.1782 57.0189 53.8375 58.0951C54.3981 58.4539 55.9229 59.844 57.201 61.1893C60.4523 64.575 61.5959 65.0683 63.7933 64.1042C64.8024 63.6557 64.9145 63.6557 65.632 63.9921C66.372 64.3284 66.372 64.3284 66.372 63.8127C66.372 62.9158 66.8204 62.7364 68.0761 63.1176C68.6815 63.297 69.3094 63.4539 69.4663 63.4539C69.9597 63.4539 70.0045 62.8261 69.5336 62.3553C69.0403 61.862 68.9506 61.3014 69.2645 60.7857C69.4215 60.5391 69.8027 60.6736 71.2378 61.5032C74.8254 63.6109 77.5835 64.5302 79.2876 64.2163C80.0051 64.0818 80.0724 64.0369 79.7585 63.7903C79.3549 63.4988 79.2428 63.0055 79.5791 63.0055C79.6912 63.0055 80.0724 63.1625 80.4088 63.3418C81.1936 63.7454 81.7541 63.7679 83.4134 63.4091C84.4897 63.1849 84.7812 63.2073 85.4315 63.5212C85.8351 63.7454 86.2163 63.8575 86.2611 63.8127C86.4181 63.6782 85.9024 62.7813 85.6557 62.7813C85.4315 62.7813 84.7588 62.1535 84.7588 61.9293C84.7588 61.8396 84.8485 61.6378 84.9606 61.4808C85.0951 61.2342 85.4315 61.3687 86.463 62.0189C88.0101 63.0055 89.6022 63.6557 91.1045 63.9024L92.1808 64.0593L92.1135 63.14C92.0463 62.2432 92.0014 62.1983 90.5888 61.5032C89.1537 60.8082 88.5707 60.27 88.5707 59.7095C88.5707 59.5525 88.6828 59.418 88.8174 59.418C89.2882 59.418 91.9117 60.8306 93.145 61.7723C94.4007 62.714 94.4231 62.714 96.0376 62.6019C97.3157 62.5346 97.8987 62.6019 98.8404 62.9831C100.186 63.5212 100.858 63.5661 101.666 63.2073C102.181 62.9607 102.338 63.0279 103.168 63.7903C104.334 64.8441 105.321 65.2477 106.644 65.2477H107.697L107.541 63.8351C107.204 60.5167 105.724 56.974 103.594 54.3282C102.024 52.3775 99.8046 50.5614 95.7461 47.8707C92.4499 45.6734 92.1808 45.4492 90.6112 43.4088C89.1313 41.4805 86.2611 38.5657 85.8351 38.5657C85.3194 38.5657 85.9248 40.4267 86.6423 41.0096C87.1805 41.4581 87.0684 41.8617 86.3508 42.1756L85.7006 42.4671L87.3599 44.0366C88.2792 44.9111 89.0192 45.8079 89.0192 46.0097C89.0192 46.2339 88.8174 46.6151 88.5707 46.8618L88.0998 47.3326L85.9248 45.0904C84.5346 43.6554 83.391 42.6913 82.7407 42.3998C80.5209 41.3908 80.7675 41.8617 84.1085 45.1129C87.4944 48.4089 88.9967 50.382 89.9161 52.669C90.3197 53.7229 90.3197 53.8125 89.9609 53.6107C89.4228 53.3193 88.6156 52.4 87.1132 50.382L85.7903 48.6107L85.4763 49.2161C85.1848 49.799 85.1624 49.799 84.7364 49.4179C84.4897 49.1936 84.1534 48.4761 83.9516 47.8259C83.4583 46.1667 82.8529 45.5389 79.9379 43.7227C78.5476 42.8482 76.9556 41.7047 76.4175 41.1666L75.4533 40.18L73.4352 40.0904C72.1571 40.0231 70.879 39.7989 69.9597 39.4625C68.4797 38.9468 63.2328 36.3459 63.2328 36.1217C63.2328 36.032 64.466 35.9871 65.9908 35.9871C69.2197 35.9871 70.7893 35.5836 72.2244 34.3504L73.1437 33.5432L74.22 34.1486C75.6102 34.9333 75.9242 34.9109 76.1035 34.0813C76.1708 33.7001 76.3726 33.4086 76.5296 33.4086C76.6865 33.4086 77.1126 33.7001 77.4713 34.0813C78.2337 34.8885 78.5701 34.9109 80.4984 34.2607C81.799 33.8346 82.651 33.7674 88.5707 33.6104C96.9345 33.4086 101.015 32.8257 113.236 30.0454L116.039 29.3951L119.514 31.0543C122.429 32.4669 124.515 33.1844 125.613 33.1844C125.726 33.1844 125.456 32.8481 125.03 32.4221C124.29 31.727 123.932 30.718 124.425 30.718C124.56 30.718 125.12 30.9646 125.703 31.2786C127.138 32.0409 127.362 31.9961 127.362 31.0543C127.362 30.1799 127.99 29.3727 128.685 29.3727C128.91 29.3727 129.986 29.7987 131.085 30.3144C132.789 31.1216 133.305 31.2561 134.65 31.2786L136.242 31.301L137.789 32.9602L139.314 34.597L138.708 34.9109C138.35 35.1127 138.17 35.3369 138.282 35.4939C138.372 35.6508 138.978 36.5253 139.605 37.4894C141.466 40.2025 142.834 43.3415 142.834 44.8886C142.834 45.8528 142.274 45.4268 141.579 44.0142C140.996 42.781 140.996 42.781 140.144 42.8931L139.269 43.0052L138.641 41.5029C137.901 39.7316 136.085 36.9513 135.39 36.5029C134.134 35.6957 134.089 35.9647 135.278 37.1979C136.354 38.319 136.556 38.6554 136.556 39.328C136.556 39.7764 136.466 40.1352 136.332 40.1352C136.219 40.1352 136.107 40.0455 136.107 39.9334C136.107 39.3953 131.645 37.3325 131.264 37.7136C131.197 37.7809 131.668 38.3414 132.273 38.9244C133.417 40.0231 136.421 44.6868 136.175 44.9335C136.085 45.0007 135.749 45.068 135.412 45.068C134.583 45.068 134.426 45.3819 135.076 45.8079C136.107 46.4806 136.601 48.4313 135.749 48.4313C135.188 48.4313 133.798 46.9963 131.937 44.4626C130.322 42.2877 129.537 41.4805 129.067 41.4805C128.999 41.4805 129.156 41.8168 129.403 42.2429C129.627 42.6464 129.784 43.1621 129.694 43.3639C129.493 43.8796 129.224 43.8124 129.067 43.1621C128.865 42.3774 127.968 42.3998 127.609 43.1846C127.318 43.8572 127.609 44.485 128.753 45.5613C129.358 46.1443 129.582 46.6375 129.179 46.6375C128.887 46.6375 126.667 44.5971 123.551 41.4581C119.761 37.6464 117.025 35.9423 115.007 36.1441L114.29 36.2114L116.824 38.902C119.088 41.3236 120.187 42.8258 120.187 43.4985C120.187 43.9021 119.38 43.3415 117.653 41.772C116.016 40.2697 115.209 39.7989 114.604 40.0231C114.335 40.1352 114.424 40.2697 114.985 40.6285C115.77 41.1218 116.173 42.0859 115.702 42.3774C115.276 42.624 110.186 40.5164 107.675 39.0365C107.025 38.6554 106.509 38.4087 106.509 38.476C106.509 39.0141 107.473 40.1128 108.863 41.1666C109.873 41.9289 110.612 42.6464 110.68 42.9828C110.971 44.1039 110.366 43.9245 108.415 42.2877C107.585 41.5702 107.316 41.4581 106.935 41.6375C106.487 41.8168 106.487 41.8617 107.271 42.4446C108.258 43.207 108.37 43.8348 107.473 43.6106C106.285 43.3191 104.491 42.1083 102.361 40.18C98.5714 36.7271 97.3157 35.6957 96.3515 35.2472C95.8358 35.0006 95.3649 34.8212 95.3424 34.8661C95.1855 35.0006 96.5533 36.8392 98.1453 38.7002C101.06 42.0635 102.249 44.2608 102.249 46.3012C102.249 47.1532 102.181 47.2654 101.868 47.1532C101.038 46.8842 99.9616 45.8976 98.4144 44.0366C96.6206 41.8841 95.7685 41.2563 94.6473 41.2563C93.7728 41.2563 93.7953 41.3684 94.9164 43.2518C95.9927 45.0456 98.1453 47.2654 101.845 50.382C103.661 51.9291 105.724 53.8574 106.397 54.6646C107.967 56.548 109.29 59.1265 109.76 61.279L110.142 62.9607L111.622 63.6333C114.761 65.0683 116.33 65.0907 118.079 63.7679L119.088 62.9831L119.94 63.7454C121.308 64.9786 122.497 65.315 124.941 65.2029C127.049 65.0907 129.493 64.4181 129.874 63.8575C130.143 63.4091 130.076 61.4584 129.717 59.9786C129.336 58.4539 129.291 56.548 129.605 56.0547C129.762 55.7857 129.896 55.8081 130.39 56.2789C131.107 56.9516 131.511 58.3642 131.959 61.8171C132.408 65.2477 132.609 65.9204 133.327 65.9204C133.618 65.9204 134.201 65.6064 134.65 65.2029C135.255 64.6871 135.659 64.5078 136.242 64.5302C136.668 64.5526 137.004 64.4854 137.004 64.3957C137.004 63.6782 137.542 61.2566 137.789 60.7633C138.17 60.0458 138.798 59.7319 139.067 60.1355C139.157 60.2925 139.247 61.0548 139.247 61.8171C139.247 63.2521 139.381 63.9024 139.695 63.9024C139.807 63.9024 139.964 63.7006 140.031 63.4315C140.166 63.0055 140.3 62.9831 141.556 63.1176C142.319 63.1849 143.059 63.1625 143.193 63.0728C143.328 62.9831 143.619 62.0862 143.798 61.1221C144.157 59.3732 144.628 58.3642 144.628 59.3507C144.628 60.1355 145.054 61.0996 145.323 60.8306C145.435 60.7185 145.682 59.7768 145.861 58.7454C146.22 56.6601 146.646 55.8305 147.341 55.8305C147.767 55.8305 147.812 55.9202 147.678 56.6601C147.588 57.131 147.274 58.2296 146.96 59.1265C146.287 61.1221 146.198 63.4539 146.826 63.4539C147.655 63.4315 149.09 62.5571 150.032 61.4584C151.49 59.7543 153.149 58.835 153.149 59.7543C153.149 60.1804 154.113 60.6512 154.584 60.4718C154.808 60.3821 154.943 59.9561 154.988 59.2611C155.077 57.983 155.66 57.6467 156.109 58.6332C156.31 59.1041 156.512 59.1938 157.028 59.1489C157.566 59.1041 157.746 58.9247 157.947 58.2969C158.194 57.5346 158.216 57.5346 159.562 57.4897C162.297 57.4225 163.957 56.0323 167.253 51.0771C168.374 49.3954 169.675 47.6914 170.145 47.3326L170.975 46.6375L169.159 42.9828C167.275 39.2159 165.706 36.8616 164.742 36.3459C163.71 35.7854 163.396 36.4804 164.024 37.9603C164.428 38.9693 164.45 39.4625 164.069 39.4625C163.912 39.4625 163.441 38.6554 163.037 37.6464C162.23 35.6732 161.804 35.3145 161.221 36.0544C160.817 36.5253 160.817 36.5253 160.459 35.4042C160.234 34.7764 159.831 33.8795 159.539 33.4311C159.001 32.5566 157.656 31.301 157.476 31.4804C157.432 31.5252 157.79 32.8705 158.306 34.4625C159.27 37.467 159.629 39.9782 159.315 41.615L159.158 42.4895L158.642 41.346C158.104 40.1352 157.387 39.5074 155.862 38.8796C154.988 38.5432 154.831 38.3414 154.158 36.8616C153.194 34.7315 152.162 33.2517 151.288 32.7136C150.525 32.2651 149.561 32.153 149.561 32.5118C149.561 33.0947 150.391 34.6194 152.162 37.2652C153.194 38.8347 154.248 40.5388 154.472 41.0769C155.01 42.2877 155.257 44.1263 154.988 44.8438C154.808 45.3595 154.718 45.2698 153.799 43.6106C152.611 41.4357 150.503 38.5881 149.516 37.8482C148.799 37.31 147.453 36.5477 147.229 36.5477C147.162 36.5477 147.543 37.2204 148.104 38.0275C149.135 39.5298 149.337 40.1352 148.821 40.1352C148.373 40.1352 147.902 39.5074 147.364 38.2742C146.893 37.1979 146.422 36.884 146.422 37.6688C146.422 37.893 146.601 38.4536 146.803 38.902C147.117 39.5522 147.117 39.754 146.893 39.9782C146.669 40.2025 146.489 40.0904 146.018 39.4625C144.92 38.0275 142.745 35.8302 140.368 33.7898C137.632 31.4355 134.089 28.005 134.089 27.7135C134.089 27.3771 137.184 27.8032 139.561 28.4982C141.825 29.1485 143.641 29.3503 144.606 29.0364C145.054 28.9018 144.785 28.7225 142.879 27.8032C141.668 27.2202 139.874 26.2112 138.933 25.5834C136.847 24.1708 133.192 20.6954 131.825 18.8344C130.636 17.1976 129.111 14.5743 129.358 14.5743C129.672 14.5743 131.242 15.8299 132.183 16.8164C133.26 17.9375 134.134 18.4308 135.323 18.5878C136.13 18.6999 136.556 19.0586 139.359 21.9735C142.049 24.7762 142.61 25.2471 143.35 25.3816C144.583 25.6058 145.884 26.2785 147.924 27.7359C150.234 29.3951 151.602 30.0902 152.386 30.0005C152.992 29.9332 152.969 29.9108 151.714 28.9467C151.019 28.3861 150.279 27.6686 150.099 27.3323C149.808 26.7493 149.83 26.6821 150.211 26.4579C150.884 26.1215 151.265 26.1664 152.7 26.9063C153.934 27.5341 154.718 27.6014 154.718 27.0857C154.718 26.9736 154.337 26.413 153.844 25.8749C153.373 25.3368 152.611 24.1932 152.162 23.3412C151.355 21.8165 151.333 21.7717 150.189 21.525C148.664 21.2111 147.992 20.7627 147.992 20.0676C147.992 18.9241 148.44 19.0811 152.14 21.5026C154.203 22.8704 155.84 23.7224 155.84 23.4085C155.84 23.3412 155.548 22.9152 155.189 22.4668C154.808 22.0183 154.449 21.3681 154.382 21.0318C154.248 20.5161 154.315 20.4264 154.92 20.2918C155.301 20.2021 155.705 19.9779 155.817 19.7986C156.109 19.238 156.445 19.6192 156.826 20.9645C157.163 22.0632 157.813 22.8704 158.373 22.8704C158.687 22.8704 158.351 21.4354 157.746 20.1349C157.14 18.8344 157.05 18.1393 157.409 17.4667C157.746 16.8389 158.194 16.9286 159.181 17.8254C160.212 18.7671 161.356 20.8748 162.41 23.7896C163.508 26.7942 164.45 28.5655 165.504 29.5969C166.02 30.0902 166.513 30.4938 166.625 30.4938C167.029 30.4938 167.118 28.7673 166.782 27.1305C165.84 22.5116 161.759 15.4263 157.633 11.211C154.203 7.71317 150.279 6.54723 139.583 5.82973C137.498 5.67278 134.672 5.42613 133.305 5.24676L130.838 4.93285L130.345 5.53824L129.851 6.14363L123.842 4.41715C115.276 1.97317 112.137 1.23324 107.518 0.538166C104.872 0.156994 97.5175 -0.0448028 95.7461 0.201838ZM98.9974 4.82074C99.6925 5.11223 101.172 5.94184 102.316 6.63692C103.437 7.33199 104.693 8.04949 105.074 8.20645C105.769 8.49793 105.792 8.49793 106.038 7.8477C106.15 7.46653 106.442 7.10778 106.644 7.01809C106.935 6.90598 108.37 7.26473 109.603 7.78043C109.76 7.8477 109.828 7.75801 109.738 7.55621C109.671 7.37684 108.707 6.63692 107.608 5.91942C106.487 5.20192 105.679 4.5741 105.792 4.52926C105.926 4.48442 107.002 4.82074 108.236 5.2916C113.371 7.19746 119.447 11.1661 124.47 15.8747C125.815 17.1528 126.084 17.5115 125.86 17.7357C125.479 18.1169 125.501 18.7223 125.905 19.0586C126.376 19.4398 126.084 19.7761 125.546 19.4846C124.425 18.9017 124.851 20.1349 126.331 21.7044C127.273 22.7358 128.035 23.9466 128.035 24.4399C128.035 24.9107 125.703 23.4309 124.447 22.1977C123.775 21.525 122.362 19.8658 121.331 18.5429C118.842 15.3142 117.272 13.8343 115.389 12.8702C114.536 12.4442 113.797 12.1527 113.729 12.22C113.527 12.4218 114.873 14.2155 116.465 15.9196C118.797 18.3636 120.456 20.673 120.12 20.9869C119.94 21.1663 117.317 19.3053 115.613 17.7357C113.797 16.0765 112.563 15.1124 112.563 15.359C112.563 15.785 114.043 17.6685 115.927 19.6416C118.102 21.9062 119.111 23.3188 119.425 24.5071L119.582 25.1574L118.887 24.7986C118.505 24.5968 117.451 23.6551 116.555 22.7134C113.146 19.0811 111.98 18.0048 110.926 17.5115C110.343 17.22 109.805 17.0407 109.738 17.1079C109.312 17.5339 113.617 23.4309 114.649 23.8345C114.783 23.9018 114.649 23.969 114.335 23.969C113.101 24.0139 111.689 22.7134 109.514 19.5071C107.742 16.9061 106.868 15.9196 103.437 12.6011C101.24 10.4711 99.6701 8.83426 99.9616 8.96879C100.612 9.2827 100.589 9.03606 99.8046 7.82528C98.975 6.52481 98.3471 5.96426 96.6206 5.04496L95.1855 4.2602H96.4636C97.3605 4.2602 98.1453 4.43957 98.9974 4.82074ZM94.737 8.83426C95.9927 9.5966 97.9211 10.045 98.8629 9.7984C99.1992 9.70871 99.4907 9.97777 100.074 10.8522C100.5 11.5025 101.643 12.8702 102.63 13.924C107.451 19.1035 108.505 20.4936 109.11 22.5789C109.716 24.6641 109.446 24.6193 107.428 22.3771C104.67 19.3053 101.755 16.3456 101.621 16.4801C101.352 16.7492 102.137 17.8479 103.572 19.1932C105.096 20.6282 105.926 21.8838 105.792 22.534C105.747 22.7807 105.231 22.6237 103.661 21.8614C99.4458 19.8658 95.477 16.6371 91.822 12.2424C90.7682 11.0092 89.9161 9.91051 89.9161 9.7984C89.9161 9.43965 90.9924 9.68629 92.1584 10.3141C92.8311 10.6953 93.571 10.9868 93.7728 10.9868C94.4231 10.9868 94.468 10.5159 93.8625 9.88809C93.5262 9.55176 93.2795 9.01363 93.2795 8.67731C93.2795 8.34098 93.3244 8.07192 93.3692 8.07192C93.4141 8.07192 94.0195 8.40824 94.737 8.83426ZM124.425 13.5429C124.761 13.9464 124.56 14.3725 124.134 14.2155C123.887 14.1258 123.326 13.2065 123.326 12.8702C123.326 12.6908 124.134 13.1841 124.425 13.5429ZM158.665 13.1168C159.27 13.5204 159.786 14.7536 159.495 15.0451C159.136 15.4039 158.575 15.0227 158.306 14.2155C158.172 13.7895 157.903 13.4532 157.723 13.4532C157.387 13.4532 157.297 13.1841 157.566 12.9375C157.79 12.6908 158.172 12.7581 158.665 13.1168ZM84.6467 13.4756C90.3197 14.1707 93.9074 16.3904 100.343 23.2067C103.213 26.2336 105.769 28.6328 107.182 29.6642L107.742 30.0454L106.958 29.9108C104.939 29.5745 103.415 28.5879 98.5714 24.5071C97.3605 23.5206 95.7236 22.3322 94.894 21.9062C93.3244 21.099 91.0372 20.3143 91.0372 20.5833C91.0372 21.0318 92.2032 22.2874 93.4365 23.1843C94.9388 24.2829 95.3873 24.8435 95.6564 25.8973C95.7909 26.4803 95.7685 26.5251 95.477 26.3009C95.2976 26.1439 94.0419 25.6058 92.6965 25.1125C91.3736 24.6193 90.0282 24.0363 89.7367 23.8569C89.3331 23.5879 89.1313 23.5654 88.9295 23.7672C88.7501 23.9466 88.9519 24.2605 89.7815 24.9556C90.4991 25.6058 90.8354 26.0543 90.7906 26.3233C90.656 27.0184 90.3197 26.9511 89.0864 26.0318C88.4362 25.561 86.6423 24.3726 85.0727 23.4085C82.1577 21.5699 79.5791 19.4174 78.8391 18.1618L78.4355 17.4443L78.9064 17.7133C79.3549 17.9375 79.3773 17.9151 79.2428 17.3321C79.1531 16.9958 79.0858 16.6146 79.0634 16.4801C79.0634 16.368 79.6912 16.1886 80.476 16.0765C81.7541 15.8971 81.9559 15.9196 82.5614 16.368C83.0098 16.7043 83.3013 16.794 83.4583 16.6371C83.5928 16.5025 83.3013 15.9868 82.5389 15.1572C80.7227 13.1393 80.8796 13.0271 84.6467 13.4756ZM152.476 16.2559C152.476 16.7043 152.364 16.8164 151.916 16.8164C151.467 16.8164 151.355 16.7043 151.355 16.2559C151.355 15.8075 151.467 15.6954 151.916 15.6954C152.364 15.6954 152.476 15.8075 152.476 16.2559ZM130.524 19.3053C131.712 20.4712 132.744 22.3098 132.744 23.2739C132.744 23.9018 132.677 23.8569 130.816 22.108C128.775 20.1797 128.394 19.664 128.125 18.2963L127.968 17.4218L128.73 17.8479C129.134 18.0945 129.941 18.7447 130.524 19.3053ZM80.1397 23.3188C81.799 23.7 83.4359 24.2157 83.974 24.5296C84.8933 25.0901 84.9382 25.135 84.9382 26.2112C84.9382 27.0184 85.0951 27.6238 85.5212 28.3413C86.306 29.6866 86.2836 30.0678 85.4539 29.8211C84.4225 29.5296 83.8619 29.1709 82.3595 27.7583C81.3729 26.839 80.8348 26.4803 80.6778 26.6372C80.3191 26.996 80.6554 27.6911 82.0008 29.1933C83.1444 30.4489 83.234 30.6059 82.808 30.6732C82.1353 30.7629 81.2608 30.2696 79.7136 28.8794C78.0319 27.3547 77.1574 26.7493 76.4175 26.57C75.5878 26.3682 75.4084 26.839 76.1035 27.3771C76.4175 27.6238 76.6865 28.005 76.6865 28.2068C76.6865 28.5431 76.395 28.5879 74.3994 28.5655C72.6504 28.5655 71.9105 28.4534 71.3499 28.1619C69.6009 27.265 70.3857 28.5879 72.2916 29.7987C73.9061 30.8077 74.2424 31.1664 73.5922 31.1664C72.2019 31.1664 64.7127 28.005 64.8472 27.4893C64.8921 27.3547 65.1611 26.5027 65.4526 25.6282L65.9684 23.9914L67.3362 24.126C70.6996 24.395 71.0584 24.4847 72.0674 25.135C72.6504 25.4937 73.211 25.7852 73.3231 25.7852C73.7267 25.7852 73.6819 25.2022 73.2558 24.4175C72.9868 23.969 72.8522 23.4533 72.9419 23.2291C73.0764 22.8928 73.211 22.9152 74.2649 23.4533C74.9151 23.7672 75.6102 24.1932 75.8345 24.3726C76.4175 24.8883 76.5968 24.2829 76.0363 23.6775C75.4981 23.117 75.4533 22.8479 75.812 22.4892C75.9914 22.3098 76.2381 22.2874 76.6641 22.4443C76.978 22.5789 78.5476 22.96 80.1397 23.3188ZM60.2729 26.0094C62.4704 26.2112 63.1879 26.5027 63.8382 27.4893C64.3091 28.2292 63.9951 28.4758 62.4255 28.4758C60.9456 28.4758 59.376 28.005 57.8737 27.0857C55.6762 25.7628 56.0798 25.5834 60.2729 26.0094ZM59.1742 29.1709C59.8917 29.4175 59.9142 29.4624 59.533 29.7539C59.0845 30.0678 53.3667 30.2023 53.3667 29.866C53.3667 29.5969 53.6806 29.2382 54.1515 28.9467C54.712 28.6104 58.0755 28.7673 59.1742 29.1709ZM54.7793 32.8929C55.0484 33.162 54.443 33.6329 53.8151 33.6329C53.4564 33.6329 52.537 33.3414 51.7522 32.9602C50.945 32.579 49.9808 32.2875 49.4651 32.2875C48.7251 32.2875 48.6354 32.2427 48.8821 31.9512C49.1063 31.6821 49.6893 31.6149 51.4383 31.6149C52.6716 31.6149 53.86 31.5028 54.0394 31.3907C54.3084 31.2337 54.3981 31.3458 54.5102 31.9512C54.5775 32.3996 54.712 32.8032 54.7793 32.8929ZM44.8459 34.4176C44.8459 34.4849 44.689 34.7988 44.4648 35.1127C43.949 35.8975 42.7158 36.4804 40.8995 36.7719C37.3118 37.3549 36.5943 37.6464 35.5853 38.8347C34.2847 40.3594 33.4327 40.8527 32.2667 40.763L31.3249 40.6957L32.4685 39.5522C33.8138 38.2518 36.4822 36.615 38.4554 35.875C41.034 34.9333 44.8459 34.0589 44.8459 34.4176ZM63.1207 38.6554C69.7354 40.8975 72.045 41.9738 74.2649 43.9245C75.229 44.7765 77.2471 47.4896 77.0677 47.6914C77.0229 47.7138 75.7224 47.1757 74.1976 46.4357C71.2602 45.0456 67.807 43.633 66.7307 43.3639C65.6769 43.1173 66.1926 43.5882 68.6143 45.2025C69.9821 46.0994 71.0135 46.9514 71.305 47.4447C71.5741 47.8707 71.7535 48.2743 71.7086 48.3192C71.619 48.4089 70.2736 47.8932 66.3271 46.1891C65.2284 45.7407 64.8024 45.6286 64.8024 45.8528C64.8024 46.3012 66.0132 47.2429 66.9774 47.5344C68.3676 47.9829 69.5336 48.7228 69.87 49.373C70.1839 49.9784 70.296 51.3461 70.0493 51.3461C69.9597 51.3461 69.3094 50.7856 68.5919 50.1129C66.1926 47.8932 62.9413 46.3012 55.452 43.5882C53.0752 42.7361 51.1244 41.9738 51.1244 41.8841C51.1244 41.7944 51.528 41.5926 52.0213 41.4581C52.7612 41.2339 53.2545 41.2563 54.7569 41.5478C56.6628 41.9289 57.4028 42.0186 58.1652 41.9738C58.9276 41.9065 58.1428 41.3236 56.618 40.8079C55.2278 40.337 54.0394 39.6195 54.0394 39.2383C54.0394 38.8347 54.9811 38.7675 56.3041 39.1038C58.3894 39.6419 58.5688 39.6195 58.3894 38.6778C58.2549 37.8706 58.367 37.2204 58.6809 37.2204C58.793 37.2204 60.7887 37.8706 63.1207 38.6554ZM32.8497 42.624C33.5223 42.8707 34.0829 43.1397 34.0829 43.2294C34.0829 43.3191 33.1636 44.0814 32.02 44.9111C30.0244 46.4133 27.1767 48.0053 25.9658 48.2968L25.3604 48.4313L25.8089 47.6465C26.3918 46.66 27.4233 45.7855 28.6566 45.2474C29.1723 45.0232 29.5983 44.7317 29.5983 44.6196C29.5983 44.3057 28.9256 43.7227 28.5669 43.7227C28.2978 43.7227 28.2754 43.633 28.4996 43.207C28.6566 42.9379 28.9256 42.6016 29.1274 42.4446C29.688 42.0186 31.4594 42.1083 32.8497 42.624ZM52.4025 44.7317C60.542 47.4223 64.1297 49.9336 66.1253 54.261C67.0222 56.2341 67.1568 56.7274 66.7756 56.7274C66.3496 56.7274 65.6096 56.1893 63.7933 54.5973C62.1789 53.1623 60.8559 52.243 60.385 52.243C60.2057 52.243 60.2057 52.4672 60.4299 53.0726C60.5869 53.5435 60.8559 54.53 60.9905 55.27C61.2147 56.2789 61.4614 56.7946 62.0443 57.3776C62.6273 57.9606 62.7395 58.1848 62.5152 58.3418C61.9547 58.7229 60.9905 58.2969 59.533 57.0637C58.7258 56.3911 57.9858 55.8305 57.8961 55.8305C53.1424 55.7857 52.3801 55.696 49.5548 54.6646C48.0076 54.104 46.3483 53.5659 45.855 53.4762L44.9581 53.3193L45.5186 52.8708C46.0119 52.4672 46.281 52.4448 47.873 52.5569C49.5099 52.6914 49.622 52.669 49.1063 52.3775C48.77 52.1982 47.6488 51.7946 46.5501 51.5031C45.4738 51.1892 44.532 50.8977 44.4648 50.808C44.2405 50.6062 45.0477 49.5524 45.7877 49.1039C47.6937 47.938 52.4473 48.095 55.0484 49.3954L55.9453 49.8439L55.5417 49.373C54.869 48.6331 52.2904 47.3775 50.1153 46.7496C47.8282 46.077 44.106 45.5164 41.8861 45.5164C40.2268 45.5164 39.9802 45.2698 40.8322 44.485C41.2583 44.1039 41.617 44.059 43.9266 44.1263C46.3259 44.1936 46.5725 44.1711 46.9537 43.7451C47.2004 43.4761 47.5143 43.2743 47.6937 43.2743C47.8506 43.2743 49.9808 43.9245 52.4025 44.7317ZM106.464 45.9425C107.473 46.6824 107.585 46.8393 107.294 47.086C107.115 47.2429 106.733 47.2878 106.464 47.2205C105.792 47.0411 104.222 45.5613 104.379 45.2922C104.648 44.8662 105.321 45.068 106.464 45.9425ZM91.5305 48.5882C91.9566 48.947 92.8983 49.9111 93.6607 50.7856C94.4007 51.6376 95.2079 52.5345 95.4321 52.7363C95.9254 53.1847 97.3605 53.8125 97.8538 53.8125C98.3695 53.8125 97.8538 52.5793 97.1811 52.1309C96.2169 51.5031 95.7461 50.9201 95.7461 50.3371C95.7461 49.6421 95.8358 49.6421 97.226 50.4493C98.3247 51.0771 99.7822 52.826 99.7822 53.4986C99.7822 53.6556 99.4458 53.8125 99.0647 53.8574C98.1229 53.9471 97.9435 54.6646 98.6835 55.3596L99.1992 55.8305H98.4144C97.1363 55.8305 95.5218 54.9112 94.0643 53.3193C92.7414 51.9067 90.1852 47.9829 90.5664 47.9829C90.656 47.9829 91.1045 48.2519 91.5305 48.5882ZM111.98 49.1264C112.406 49.8439 112.451 50.6735 112.048 51.1892C111.801 51.5479 111.734 51.5479 111.263 51.234C110.837 50.9201 110.769 50.6735 110.769 49.4179C110.769 48.0725 110.792 48.0053 111.195 48.2519C111.42 48.3864 111.778 48.79 111.98 49.1264ZM183.016 49.1488C184.832 50.1802 184.922 51.6152 183.308 53.1175C181.536 54.7543 178.778 55.8305 176.357 55.8305C174.989 55.8305 173.554 55.4942 173.554 55.1803C173.554 54.687 181.178 48.6555 181.828 48.6555C181.985 48.6555 182.523 48.8797 183.016 49.1488ZM31.9527 50.0232C33.7466 50.2923 33.9932 50.5389 33.2309 51.3013C32.9618 51.5704 32.3115 51.7721 31.5267 51.8843C29.9123 52.0636 29.7553 52.1533 27.2439 54.0592C26.1228 54.8888 24.8447 55.7408 24.3738 55.9426C23.589 56.2565 23.5217 56.2565 23.3872 55.8978C23.0957 55.1803 23.2078 53.0502 23.5441 52.3775C24.6429 50.2699 27.7148 49.3954 31.9527 50.0232ZM82.651 51.7721C83.3462 52.6242 84.1534 53.4538 84.4673 53.6107C85.3418 54.0816 84.9382 54.3731 83.4359 54.3731H82.0232L81.5075 52.9829C81.2384 52.2206 80.8348 51.3237 80.633 51.0322C80.1621 50.2923 80.1845 50.225 80.8348 50.225C81.2608 50.225 81.7093 50.6062 82.651 51.7721ZM137.273 50.9874C137.408 51.234 137.655 51.9964 137.812 52.6242L138.081 53.8125H136.982C135.973 53.8125 135.883 53.7677 136.085 53.4089C136.242 53.1175 136.219 52.6466 135.973 51.8843C135.793 51.2789 135.704 50.6735 135.749 50.5389C135.906 50.1354 136.982 50.4493 137.273 50.9874ZM186.559 54.1489C186.559 54.6421 188.196 56.3462 189.138 56.8619C189.564 57.0861 189.922 57.3328 189.922 57.4C189.922 57.6691 188.353 58.2745 187.075 58.4987C186.357 58.6108 184.496 58.7678 182.927 58.8575C179.608 59.0144 178.106 59.3956 177.052 60.3373C176.312 60.9651 176.267 60.9875 176.132 60.5615C175.841 59.5974 177.41 58.2296 179.361 57.7139C180.258 57.4897 180.46 57.3328 180.953 56.3911C181.267 55.7857 181.783 55.113 182.119 54.8664C183.33 53.9695 186.559 53.4538 186.559 54.1489ZM41.3031 54.53C42.2 54.8888 42.5812 55.1579 42.5364 55.3821C42.4915 55.6287 42.2225 55.696 41.4377 55.6511C40.6528 55.5839 40.3614 55.6736 40.182 55.9426C40.0026 56.2789 39.9353 56.2565 39.5093 55.7184C38.9039 54.9561 38.8814 54.5749 39.4196 54.2834C39.9129 53.9695 39.8232 53.9695 41.3031 54.53ZM118.191 55.8081C118.73 56.3686 118.842 56.6601 118.842 57.557C118.842 58.14 118.752 58.7678 118.64 58.9471C118.371 59.3732 117.833 58.5211 117.138 56.6153C116.599 55.1579 116.599 55.1579 117.07 55.1579C117.317 55.1579 117.833 55.4493 118.191 55.8081ZM126.241 55.7408C126.241 56.2341 126.152 56.3014 125.636 56.2341C125.232 56.1893 125.03 56.0099 124.986 55.6511C124.918 55.2251 125.008 55.1579 125.569 55.1579C126.152 55.1579 126.241 55.2475 126.241 55.7408ZM32.8721 59.5301C33.5672 59.8216 33.6345 59.9113 33.4102 60.2925C33.2981 60.5391 33.0066 60.853 32.7824 60.9651C32.4909 61.1445 32.76 61.1893 33.8138 61.2118C35.1592 61.2118 36.5494 61.6602 36.5494 62.0862C36.5494 62.1983 35.9665 62.4001 35.2489 62.5346C33.1412 62.9382 31.7958 63.7454 29.9795 65.7186L28.3426 67.4899L27.8718 66.8845L27.4233 66.2791L26.1452 66.7051C24.8671 67.1536 24.8447 67.1536 24.5307 66.7051C24.172 66.2118 24.1271 64.9562 24.4411 64.3508C24.8447 63.5885 24.2617 63.6333 23.0733 64.4405C22.1539 65.0907 21.84 65.2029 21.5036 65.0235C20.9879 64.732 20.9879 64.6871 21.4812 63.8575C21.8624 63.1849 24.6204 60.9875 25.0689 60.9875C25.2034 60.9875 25.607 61.1669 25.9882 61.3687C26.6161 61.7275 26.7282 61.7275 26.9076 61.436C27.2663 60.8754 27.6924 61.4808 27.356 62.1086C26.9973 62.7813 27.1318 62.8486 28.2305 62.445C29.6656 61.9517 30.4952 61.2566 30.9886 60.1579C31.4594 59.1041 31.6837 59.0368 32.8721 59.5301ZM190.057 60.4046C191.582 61.0996 191.896 61.7723 191.402 63.1176C190.909 64.3508 190.954 65.158 191.492 65.5392C191.918 65.8307 191.918 65.8755 191.559 66.1894C190.819 66.7948 189.945 67.019 187.546 67.2657C186.223 67.4002 184.81 67.6468 184.384 67.8262C183.375 68.2522 183.465 67.7589 184.496 67.2657C185.281 66.8845 185.393 66.5706 184.877 66.1446C184.586 65.8979 184.227 65.8979 182.971 66.1446C182.097 66.3015 181.334 66.3688 181.267 66.3015C181.043 66.0773 183.823 63.4091 185.281 62.445C186.29 61.7723 186.514 61.5257 186.312 61.3014C185.931 60.853 185.146 60.9203 184.586 61.436L184.093 61.9068V61.3687C184.093 60.7857 184.586 60.2476 185.438 59.8889C186.312 59.5077 188.689 59.7768 190.057 60.4046ZM36.101 63.5661C36.101 63.6333 35.944 64.0369 35.7646 64.4854C35.4059 65.3374 34.3744 65.9204 33.186 65.9204C31.7734 65.9204 32.6927 64.5302 34.5314 63.9024C35.8543 63.4315 36.101 63.3867 36.101 63.5661ZM43.5006 65.6961C43.7921 65.8755 43.7696 65.9876 43.366 66.5257C42.9624 67.0639 42.7158 67.1536 41.8413 67.1311H40.8098L41.3704 68.0953C41.7516 68.7904 41.8188 69.1043 41.6395 69.1715C41.4825 69.2388 41.1013 69.3733 40.765 69.4854C40.182 69.7096 40.1147 69.6648 39.7111 68.88C39.0384 67.5347 38.6572 67.3105 37.8724 67.7589C36.9531 68.2971 37.0652 67.8486 38.0294 67.1087C39.5317 65.9652 42.6485 65.158 43.5006 65.6961ZM191.941 68.1401C191.941 68.3643 192.344 69.1715 192.86 69.9114C193.667 71.1446 193.757 71.4137 193.69 72.4451L193.622 73.6111L192.613 73.925C191.761 74.1716 186.402 75.3375 186.043 75.3375C185.998 75.3375 185.954 75.1582 185.976 74.9564C185.976 74.7546 185.752 74.4631 185.483 74.3061C185.191 74.1716 184.855 73.9474 184.743 73.8353C184.406 73.4989 184.743 72.916 185.326 72.7814C185.617 72.7142 186.29 72.1985 186.851 71.6604C188.151 70.3375 189.407 69.5079 190.057 69.5079C190.349 69.5079 190.595 69.3957 190.595 69.2836C190.595 68.8576 189.945 68.7904 189.429 69.1491C189.16 69.3509 188.644 69.5079 188.286 69.5079C187.658 69.5079 187.635 69.4854 187.949 68.9921C188.443 68.2522 189.676 67.7141 190.887 67.7141C191.761 67.7141 191.941 67.7814 191.941 68.1401ZM48.7251 68.2522C49.4202 68.2522 50.0032 68.3195 50.0032 68.4092C50.0032 68.4989 49.4651 68.7455 48.8372 68.9473C47.3349 69.4406 47.0882 69.6648 47.8506 69.8666C48.5009 70.0236 48.6354 70.4047 48.03 70.4047C47.8282 70.4047 46.9537 70.2702 46.124 70.0908C45.272 69.9114 44.4423 69.8218 44.2629 69.889C43.7248 70.0908 43.9042 69.5751 44.5544 69.0818C44.8684 68.8128 45.0926 68.5661 45.0477 68.5213C45.0029 68.4764 44.7563 68.3419 44.5096 68.185C44.1508 67.9607 44.3975 67.9383 45.7429 68.0953C46.6622 68.185 48.0076 68.2746 48.7251 68.2522ZM21.7054 69.5079C21.2121 70.1805 21.2121 70.2029 21.6158 71.2568C22.2436 72.916 22.2436 72.9608 21.4588 73.4317C20.8758 73.7904 19.7995 75.3375 19.4407 76.3017C19.4183 76.4138 18.9474 76.3689 18.4317 76.1896C17.333 75.8532 17.2433 75.4721 17.8935 74.0146C18.2299 73.2971 18.3644 73.1626 18.5887 73.3868C18.8129 73.5886 18.925 73.5662 19.1492 73.2299C19.7771 72.1985 20.248 71.75 20.6964 71.75C21.1225 71.75 21.0776 71.6604 20.4049 71.2568C19.9789 70.9877 19.5753 70.7411 19.5304 70.7186C19.4856 70.6738 19.7771 70.2478 20.1807 69.7321C20.7188 69.0594 21.0552 68.8352 21.5485 68.8352H22.2212L21.7054 69.5079ZM36.5494 69.037C36.5494 69.463 35.8768 69.9114 35.0471 70.0684C33.8587 70.2926 33.6345 70.5393 33.6345 71.7276C33.6345 73.0505 32.8497 74.3958 30.6074 76.9071C28.9481 78.7905 27.8045 80.6291 27.8045 81.4587C27.8045 81.7726 27.7148 81.8399 27.4233 81.7278C27.1991 81.6157 26.6161 81.4811 26.1228 81.4139C25.2483 81.2793 25.2483 81.2569 25.7416 80.9879C26.4591 80.5843 27.9615 78.4766 30.0019 75.0461C31.9527 71.75 33.4102 70.0011 34.8229 69.3061C35.8095 68.8128 36.5494 68.7007 36.5494 69.037ZM38.7245 69.9114C38.9487 70.046 38.9263 70.2029 38.6572 70.6065C38.2087 71.2343 37.0428 71.75 36.101 71.75C35.4507 71.75 35.4283 71.7052 35.675 71.2343C36.2131 70.2029 36.8185 69.7321 37.6482 69.7321C38.0966 69.7321 38.5899 69.8218 38.7245 69.9114ZM16.9966 72.0191C17.6917 72.7142 16.9742 74.6649 16.0324 74.6649C15.7634 74.6649 15.6961 74.351 15.6961 73.2075C15.6961 71.8397 15.7185 71.75 16.2118 71.75C16.5033 71.75 16.8397 71.8621 16.9966 72.0191ZM33.3878 77.6694C34.3072 78.7905 33.6793 80.9654 31.3922 84.396C30.5625 85.6292 29.8226 86.7951 29.7329 86.9521C29.6432 87.109 29.7777 87.692 30.0468 88.2525C31.2352 90.6741 29.5759 93.9477 27.1991 93.9477C26.504 93.9477 26.4815 93.9253 26.6833 93.3647C26.8179 93.0284 27.5803 90.6293 28.3875 88.0283C29.9347 83.0282 30.9437 80.4721 32.1097 78.5214C32.8945 77.2658 32.9842 77.1986 33.3878 77.6694ZM17.5572 78.8802C18.3869 79.5977 17.8487 81.3914 16.7948 81.3914C16.4136 81.3914 16.3688 81.2121 16.3688 79.8219C16.3688 78.1627 16.5482 78.0282 17.5572 78.8802ZM197.726 81.4587C198.712 83.2525 199.183 85.1583 199.071 86.8624L199.004 87.9611L197.546 88.3871C196.066 88.7907 193.847 88.9252 193.353 88.6113C193.084 88.4543 192.994 88.0507 193.039 87.3781C193.039 87.1763 193.42 86.8175 193.847 86.6157C194.676 86.2121 195.057 85.5395 194.654 85.1359C194.474 84.9565 194.183 85.0014 193.622 85.2704C192.636 85.7413 191.941 85.7637 191.941 85.3153C191.941 84.8893 192.748 84.396 193.779 84.2166C194.25 84.1269 194.676 83.97 194.743 83.8579C195.057 83.3646 193.6 83.387 191.447 83.9475C189.07 84.5529 187.994 84.665 187.501 84.3511C186.716 83.8354 188.017 82.9161 190.035 82.5125C190.775 82.378 191.716 82.1538 192.12 82.0417C192.882 81.795 193.398 81.1224 193.196 80.6067C193.129 80.4273 193.308 80.2704 193.69 80.2031C194.026 80.1358 194.699 79.934 195.192 79.7546C195.752 79.5304 196.223 79.4856 196.448 79.6201C196.672 79.7322 197.232 80.5394 197.726 81.4587ZM21.0776 83.7233C21.0776 83.7682 20.9206 84.1045 20.7413 84.4408C20.5619 84.7996 20.4049 85.3601 20.4049 85.6964C20.4049 86.4364 19.7098 87.2211 19.0595 87.2211C18.6559 87.2211 18.6111 87.0642 18.6111 85.5843C18.6111 84.665 18.6783 83.8579 18.768 83.7906C18.925 83.6336 21.0776 83.5664 21.0776 83.7233ZM21.9969 89.4857C22.3781 89.8669 22.4454 90.1584 22.3557 90.9656C22.1539 92.849 20.674 93.9925 20.1583 92.6696C19.9789 92.1539 20.0237 91.7952 20.517 90.5396C20.8534 89.6875 21.2121 89.0149 21.3243 89.0149C21.4364 89.0149 21.7503 89.2391 21.9969 89.4857ZM198.824 89.3961C198.129 91.5261 198.107 91.6607 198.578 93.7011L199.026 95.719L198.533 95.9881C197.905 96.3244 196.851 96.1675 195.349 95.5172L194.228 95.0239L194.564 93.8804C194.945 92.58 195.371 91.9746 196.201 91.6607C196.627 91.5037 196.672 91.414 196.425 91.2571C196.223 91.145 195.82 91.1898 195.326 91.414C194.407 91.8176 193.443 91.9073 193.286 91.6158C193.107 91.2795 195.595 89.71 196.896 89.3736C198.578 88.9252 198.981 88.9252 198.824 89.3961ZM34.1726 94.0374C33.8587 95.1136 33.1187 96.6383 32.9169 96.6383C32.4685 96.6383 32.5133 95.8984 33.0515 94.71C33.3654 94.015 33.6345 93.275 33.6345 93.0732C33.6569 92.7818 33.7017 92.7818 33.9708 93.1405C34.1726 93.4096 34.2399 93.7907 34.1726 94.0374ZM197.771 97.4007C197.771 98.0061 197.031 98.6563 196.38 98.6563C195.865 98.6563 194.856 98.1854 194.856 97.9388C194.856 97.4007 195.797 96.8625 196.761 96.8625C197.681 96.8625 197.771 96.9074 197.771 97.4007ZM197.412 105.674C197.771 105.921 197.748 105.988 197.098 106.459L196.425 106.975L196.223 106.459C196.066 106.078 196.111 105.876 196.38 105.652C196.829 105.316 196.918 105.316 197.412 105.674ZM196.649 109.239C196.649 110.024 195.999 110.54 195.035 110.54C194.003 110.54 193.914 110.114 194.743 109.307C195.461 108.567 196.649 108.522 196.649 109.239ZM195.932 112.177C195.999 112.939 195.954 113.006 195.439 113.006C194.654 113.006 194.317 112.334 194.766 111.683C195.304 110.943 195.842 111.168 195.932 112.177ZM28.0287 113.298C28.0287 114.083 27.513 114.822 26.7506 115.226C26.1228 115.54 26.0107 115.54 26.0107 115.181C26.0107 114.733 27.6475 112.356 27.8493 112.468C27.9615 112.535 28.0287 112.917 28.0287 113.298ZM193.062 112.894C193.062 113.522 192.591 113.701 191.111 113.612C190.214 113.567 190.147 113.522 190.147 112.939C190.147 112.334 190.169 112.334 191.604 112.334C193.017 112.334 193.062 112.356 193.062 112.894ZM24.6204 114.262C24.6429 114.284 24.6204 114.441 24.5307 114.643C24.3738 115.069 23.006 115.562 22.5351 115.383C22.1988 115.271 22.0642 113.903 22.3333 113.612C22.423 113.522 23.9702 113.948 24.6204 114.262ZM193.376 118.5C194.183 118.836 194.429 119.352 193.891 119.576C193.734 119.621 193.241 119.531 192.77 119.352C191.941 119.015 191.694 118.522 192.232 118.32C192.367 118.253 192.524 118.186 192.524 118.186C192.546 118.163 192.927 118.32 193.376 118.5ZM27.8269 120.204C28.1408 121.302 28.0287 123.32 27.6027 124.441C27.1094 125.72 25.5622 128.253 25.2483 128.253C25.1362 128.253 25.1137 127.805 25.181 127.244C25.2483 126.527 25.6295 125.675 26.4367 124.419C27.8269 122.244 27.9615 121.437 26.8179 122.311C26.5712 122.491 26.1452 122.648 25.8537 122.648C24.7998 122.648 25.3604 120.338 26.5712 119.823C27.4233 119.441 27.6475 119.509 27.8269 120.204ZM191.761 121.908C192.277 122.154 193.062 123.208 193.062 123.634C193.062 123.702 192.389 123.545 191.559 123.32C190.035 122.894 189.474 122.468 189.474 121.706C189.474 121.347 189.586 121.302 190.326 121.437C190.775 121.527 191.425 121.728 191.761 121.908ZM188.353 128.433C189.07 128.791 189.743 129.868 189.429 130.159C189.026 130.585 186.559 128.926 186.559 128.231C186.559 127.917 187.501 128.029 188.353 128.433ZM29.1499 128.971C29.1499 129.262 28.7463 130.069 28.253 130.809C27.1767 132.401 27.1094 132.155 28.0511 130.047C28.7687 128.455 29.1499 128.074 29.1499 128.971Z" fill="black"/>
<path d="M153.709 125.809C153.104 126.302 151.938 127.087 151.131 127.558C149.696 128.41 144.785 130.72 144.381 130.72C144.269 130.72 144.18 130.518 144.18 130.271C144.18 129.688 143.821 129.711 142.005 130.383C138.305 131.773 136.107 134.128 136.107 136.661C136.107 137.984 136.354 138.074 138.17 137.334C138.439 137.222 138.641 137.379 138.888 137.872L139.247 138.545L140.301 137.939C140.906 137.626 141.489 137.199 141.623 137.02C141.848 136.729 142.005 136.729 142.834 137.11L143.776 137.536L144.718 137.02C150.66 133.634 156.467 131.975 163.912 131.527L166.064 131.392L166.491 132.625C166.849 133.747 166.961 133.881 167.477 133.814C167.836 133.769 168.262 133.41 168.71 132.76C169.092 132.222 169.63 131.706 169.921 131.594C170.347 131.437 170.415 131.482 170.415 131.93C170.415 132.222 170.123 132.693 169.742 133.029C169.002 133.702 168.8 134.464 169.473 134.195C169.675 134.105 170.123 133.971 170.437 133.926C170.953 133.836 171.065 133.948 171.513 134.98C172.164 136.504 172.343 136.549 174.271 135.764C174.585 135.63 174.652 135.787 174.72 136.684C174.809 138.186 175.213 138.365 176.715 137.581C177.388 137.222 177.971 136.908 178.016 136.863C178.038 136.841 177.635 135.966 177.119 134.957C175.37 131.706 174.002 130.563 171.984 130.764C171.155 130.832 171.132 130.832 170.998 129.98C170.885 129.329 170.661 129.016 169.966 128.522C169.473 128.186 168.957 127.648 168.8 127.289L168.509 126.684H165.078C161.288 126.684 159.943 126.459 159.091 125.652L158.508 125.114L158.082 125.607L157.678 126.123L156.423 125.495C155.728 125.159 155.077 124.89 154.988 124.912C154.898 124.912 154.337 125.316 153.709 125.809Z" fill="black"/>
<path d="M73.5025 128.791C73.1661 128.971 72.3141 129.576 71.6414 130.137C69.9821 131.482 69.6682 131.549 68.8161 130.854C68.4349 130.54 67.9192 130.271 67.6725 130.271C67.1568 130.271 65.7666 130.944 63.457 132.289C60.699 133.903 59.5778 134.128 57.1337 133.545L55.8556 133.253L54.8914 134.24C54.3533 134.8 52.6716 136.325 51.1692 137.626C48.1645 140.182 46.4828 142.02 45.6308 143.724C44.846 145.294 44.8684 145.383 46.1913 145.227C47.7834 145.025 49.196 144.195 51.6177 141.998C54.3084 139.576 55.9005 138.747 58.0082 138.747C58.8603 138.724 59.9142 138.836 60.3402 138.993C61.0802 139.24 61.3044 139.173 63.4794 138.141C67.7846 136.101 68.9282 135.944 72.0226 136.908C74.2873 137.626 75.1394 137.558 79.1307 136.437C82.4044 135.518 82.9201 135.495 85.3642 136.123L87.2029 136.617L86.7545 137.2C86.5078 137.513 86.3733 137.805 86.4854 137.827C86.8666 137.962 91.0597 136.572 92.0463 135.989C92.8983 135.495 93.9522 134.307 93.9522 133.859C93.9522 133.634 92.4275 132.715 91.7324 132.513C91.3287 132.401 89.8264 132.155 88.4138 131.953C85.4763 131.549 84.131 131.011 83.2116 129.89C82.5838 129.128 82.5614 129.105 81.9784 129.486C81.1039 130.069 79.5118 129.957 77.5386 129.172C75.6775 128.41 74.4443 128.298 73.5025 128.791Z" fill="black"/>
<path d="M152.925 139.217C150.099 139.845 146.736 141.235 146.287 141.975C146.041 142.379 148.597 141.975 152.499 141.011C159.584 139.285 161.714 139.33 164.719 141.28C165.638 141.886 166.76 142.558 167.208 142.782C168.239 143.298 169.742 143.612 169.742 143.298C169.742 142.895 167.791 141.146 166.625 140.518C164.383 139.285 162.813 138.971 158.642 138.881C155.526 138.814 154.494 138.881 152.925 139.217Z" fill="black"/>
<path d="M135.659 140.092C135.659 140.271 135.031 140.899 131.331 144.397C129.156 146.46 128.528 147.67 128.349 150.137C128.17 152.245 128.618 154.106 129.47 154.913L130.008 155.428L130.479 154.958C131.017 154.419 131.062 153.993 130.681 152.245L130.434 150.989L132.094 148.253C133.013 146.729 134.583 144.374 135.614 143.007C137.318 140.72 137.43 140.495 137.072 140.226C136.623 139.89 135.659 139.8 135.659 140.092Z" fill="black"/>
<path d="M76.2605 141.056C72.9195 141.46 70.2511 142.401 64.2418 145.294C62.1565 146.303 60.2057 147.222 59.9366 147.334C59.6451 147.446 59.4209 147.715 59.4209 147.962C59.4209 148.859 58.9051 149.509 57.4925 150.316C56.1247 151.101 55.5641 151.841 55.9229 152.424C56.2592 152.962 58.7033 153.455 61.1026 153.455L63.5691 153.478L63.6364 152.872C63.6812 152.424 63.5467 152.2 63.0309 151.886C62.6049 151.639 62.3358 151.28 62.3358 151.011C62.3358 150.63 62.4928 150.563 63.3 150.541C63.9279 150.518 64.8024 150.227 65.8562 149.688C66.8653 149.173 67.807 148.836 68.4349 148.814L69.3991 148.769L69.5336 150.227C69.6233 151.034 69.7354 151.841 69.8251 152.02C69.9372 152.312 69.713 152.357 68.2779 152.289C67.2913 152.245 66.5962 152.289 66.5962 152.424C66.5962 152.85 68.1658 154.016 68.9955 154.195C70.139 154.442 73.9285 154.375 76.126 154.061C77.1126 153.926 79.6688 153.343 81.799 152.76C84.8261 151.953 85.6557 151.639 85.6557 151.348C85.6557 150.742 85.4539 150.697 84.6018 151.034C83.3013 151.594 83.1892 151.415 83.1892 149.038C83.1892 146.46 83.3686 146.191 84.8036 146.639C85.4987 146.841 86.3508 147.491 88.0101 149.106C89.6694 150.72 90.4991 151.37 91.1493 151.549C92.1584 151.819 93.2795 151.886 93.2795 151.639C93.2795 151.572 92.9656 151.011 92.5844 150.406C90.9251 147.805 87.6738 145.832 83.0771 144.599C81.5972 144.195 80.633 144.105 77.5834 144.083C73.1437 144.061 71.8656 144.352 69.0627 145.966C66.9101 147.2 66.1926 147.424 65.3181 147.2C64.7127 147.065 64.6902 147.043 65.1387 146.706C66.0356 146.034 68.547 144.89 70.296 144.33C73.2334 143.41 76.0363 143.029 80.6778 142.895C84.9606 142.76 84.983 142.76 84.6018 142.334C83.7049 141.348 82.5165 140.966 80.1621 140.899C78.9288 140.877 77.1798 140.944 76.2605 141.056ZM73.5473 147.671C73.5473 148.343 73.6594 149.106 73.7715 149.352C74.1976 150.137 75.2963 150.518 76.7986 150.384C78.884 150.227 79.4221 149.89 79.8706 148.455C80.3415 147.043 80.8348 146.415 81.5075 146.415C81.9335 146.415 82.0232 146.639 82.3371 148.253C82.7631 150.541 82.5389 151.684 81.6196 151.684C81.1487 151.684 81.0366 151.572 80.9917 150.944C80.9469 150.563 80.8572 150.227 80.7899 150.227C80.7002 150.227 80.0275 150.832 79.2427 151.572C78.4804 152.312 77.6507 152.917 77.4265 152.917C77.1798 152.917 76.7538 152.671 76.4623 152.357C75.812 151.684 75.3636 151.662 73.794 152.245C72.4486 152.76 71.6638 152.693 70.7444 151.998C70.2736 151.617 70.1839 151.348 70.1839 150.339C70.1839 148.029 71.3274 146.482 73.054 146.437C73.5025 146.415 73.5473 146.505 73.5473 147.671Z" fill="black"/>
<path d="M95.8582 142.626C96.1497 143.612 97.2933 145.496 99.0199 147.805C99.9392 149.038 100.881 150.428 101.105 150.877C101.778 152.177 102.249 154.016 102.249 155.316C102.249 156.415 102.294 156.505 102.764 156.505C103.056 156.505 103.482 156.303 103.706 156.056C104.065 155.653 104.11 155.249 104.065 153.074C104.02 150.697 103.998 150.541 103.415 149.935C103.078 149.599 101.957 148.029 100.881 146.46C98.8853 143.5 97.8539 142.514 96.4412 142.244C95.7237 142.087 95.7013 142.11 95.8582 142.626Z" fill="black"/>
<path d="M153.014 142.401C146.534 143.029 141.04 145.72 138.821 149.352L138.125 150.451H138.753C139.718 150.428 141.018 149.733 142.812 148.231C144.673 146.661 145.682 146.101 146.96 145.877C147.723 145.72 147.812 145.765 147.678 146.101C147.61 146.303 147.745 147.222 147.992 148.141C148.619 150.316 148.575 150.473 147.274 150.585C146.175 150.653 144.852 151.191 144.852 151.549C144.852 151.863 148.081 152.312 152.364 152.603C157.073 152.895 162.14 151.729 164.36 149.778L164.921 149.307L163.777 149.419C163.172 149.464 162.544 149.464 162.41 149.375C162.14 149.195 161.827 146.168 162.028 145.653C162.522 144.374 165.728 146.37 167.32 148.926L167.97 149.98L168.912 149.554C170.28 148.926 171.491 148.993 173.733 149.868C176.177 150.81 176.895 150.966 177.904 150.765C178.89 150.585 178.98 150.025 178.128 149.352C177.635 148.971 177.209 148.881 175.863 148.881H174.182L172.903 147.581C170.078 144.756 165.638 143.007 159.607 142.379C157.252 142.132 155.638 142.132 153.014 142.401ZM152.521 146.841C152.611 148.5 153.059 149.33 153.866 149.33C154.405 149.33 154.382 149.599 153.799 150.137C153.171 150.697 151.467 150.675 150.458 150.092C149.561 149.576 149.292 148.769 149.539 147.379C149.808 146.034 150.525 145.294 151.602 145.294H152.431L152.521 146.841ZM161.221 149.105C160.347 150.742 157.185 150.899 157.185 149.307C157.185 148.814 157.14 148.814 158.059 149.128C158.732 149.375 158.844 149.33 159.495 148.702C159.898 148.321 160.459 147.917 160.773 147.805C161.266 147.626 161.333 147.648 161.401 148.119C161.445 148.41 161.356 148.836 161.221 149.105Z" fill="black"/>
<path d="M86.3284 143.052C86.3284 143.433 87.7634 144.599 87.9652 144.397C88.1671 144.218 87.7634 143.276 87.3598 143.007C87.0011 142.76 86.3284 142.783 86.3284 143.052Z" fill="black"/>
<path d="M199.071 144.24C198.667 144.756 197.546 146.079 196.537 147.2C194.385 149.599 193.757 150.451 193.062 151.796C192.322 153.231 191.941 154.823 191.941 156.482V157.895L192.725 157.76C193.151 157.671 193.914 157.357 194.452 157.065L195.394 156.527L195.932 157.469C196.672 158.792 197.322 159.42 197.927 159.42C198.354 159.42 198.443 159.33 198.354 159.016C197.726 156.976 197.591 152.558 198.107 150.675C198.421 149.487 199.026 148.433 199.497 148.276C199.609 148.231 200.013 149.038 200.349 150.047C200.865 151.572 200.999 152.446 201.089 154.756C201.201 157.783 201.044 159.24 200.013 164.689C199.049 169.778 199.026 170.047 199.34 169.846C199.946 169.487 201.403 166.864 201.896 165.249C203.264 160.922 203.174 155.047 201.582 147.424C200.865 143.993 200.73 143.567 200.237 143.433C199.901 143.343 199.609 143.567 199.071 144.24Z" fill="black"/>
<path d="M10.0904 147.132C7.84811 151.034 7.08573 158.545 8.07234 166.931C8.67776 171.998 9.08137 173.882 10.0007 176.146C10.8976 178.389 11.3237 179.084 11.9067 179.263C12.6242 179.487 12.7812 179.196 12.4 178.299C10.0231 172.649 8.65533 160.473 10.0231 157.379C10.4716 156.37 11.7497 155.182 12.0636 155.496C12.3775 155.81 12.1309 158.007 11.5703 159.756C11.2564 160.743 10.9873 161.617 10.9873 161.707C10.9873 161.976 12.086 161.908 12.6242 161.617C12.8933 161.482 13.5884 160.989 14.1938 160.496C15.7186 159.308 16.167 159.352 17.0415 160.855C17.4227 161.527 17.916 162.155 18.1402 162.222C18.5887 162.357 19.2838 162.155 19.2838 161.886C19.2838 161.527 15.9428 153.388 15.1356 151.796C13.7902 149.106 11.5255 145.966 10.9425 145.966C10.8528 145.966 10.4716 146.505 10.0904 147.132Z" fill="black"/>
<path d="M171.199 152.626C167.881 154.532 164.741 155.877 162.97 156.168C160.526 156.55 159.517 157.514 161.019 158.052C163.508 158.904 168.419 157.715 171.087 155.608C172.029 154.868 172.881 153.343 172.881 152.401C172.881 151.662 172.859 151.662 171.199 152.626Z" fill="black"/>
<path d="M124.38 153.052C124.201 153.388 123.528 156.28 123.169 158.186C122.99 159.195 122.811 162.312 122.721 165.294C122.519 173.68 123.08 177.85 124.717 180.07L125.456 181.057L125.524 178.814C125.569 177.581 125.434 174.308 125.232 171.527C124.761 164.711 124.761 158.545 125.232 155.967L125.591 153.949L125.053 153.41C124.739 153.119 124.447 152.962 124.38 153.052Z" fill="black"/>
<path d="M88.0102 156.213C87.6514 156.281 85.2746 156.751 82.7408 157.29C80.207 157.828 77.0678 158.433 75.7672 158.612C72.8747 159.038 68.2107 159.061 65.9235 158.657C65.0042 158.478 64.197 158.388 64.1521 158.433C63.9055 158.657 64.5109 159.756 65.0939 160.182C65.6993 160.63 66.0581 160.653 71.4844 160.72C77.6283 160.81 80.3191 160.608 83.4135 159.846C86.4181 159.083 89.3331 157.603 89.9161 156.505C90.1403 156.101 90.0955 156.056 89.4228 156.079C89.0192 156.101 88.3913 156.168 88.0102 156.213Z" fill="black"/>
<path d="M135.21 156.639C135.21 156.707 135.547 157.402 135.928 158.164C137.363 160.877 140.166 163.029 143.238 163.769C144.875 164.173 147.543 164.397 147.543 164.128C147.543 163.568 145.413 162.245 142.722 161.101C139.224 159.621 138.17 158.904 137.43 157.514C136.937 156.594 136.825 156.505 136.063 156.505C135.592 156.505 135.21 156.572 135.21 156.639Z" fill="black"/>
<path d="M188.801 162.222C188.801 163.164 189.25 164.106 190.281 165.384C190.707 165.877 191.245 166.774 191.514 167.379C192.187 168.882 192.008 170.698 190.909 173.276C189.698 176.124 189.07 178.03 188.981 179.016L188.913 179.868L190.371 180.406L191.828 180.922L192.344 180.429C193.241 179.599 194.564 177.133 195.326 174.891L196.044 172.761L195.259 171.595C194.811 170.967 194.183 169.689 193.846 168.792C192.299 164.666 191.873 163.814 190.707 162.626C189.339 161.191 188.801 161.079 188.801 162.222Z" fill="black"/>
<path d="M17.9159 164.98C16.436 165.743 15.6064 166.886 15.1131 168.837C14.7095 170.474 14.7992 172.783 15.3597 174.891C15.7409 176.303 15.584 176.55 14.1713 176.819L13.4089 176.976L13.5435 178.119C13.7229 179.487 14.7543 181.752 15.7409 183.03C16.5706 184.061 19.9116 186.774 20.3601 186.774C20.6067 186.774 20.6515 186.46 20.517 185.16C20.3152 183.187 19.7098 181.393 18.0953 178.03C16.6378 175.003 16.3688 174.106 16.3688 172.379C16.3688 170.698 16.5706 170.227 17.9608 168.702C19.1941 167.335 19.934 165.944 19.9564 164.958C19.9564 164.151 19.4631 164.173 17.9159 164.98Z" fill="black"/>
<path d="M127.721 180.406C127.385 181.259 127.362 181.46 127.609 181.819C127.788 182.043 128.753 183.321 129.762 184.667C131.712 187.245 134.986 192.559 136.556 195.743C137.273 197.178 137.453 197.716 137.273 197.985C137.139 198.165 136.466 199.241 135.793 200.362C134.493 202.492 133.349 203.703 132.408 203.949C131.645 204.129 131.712 204.398 132.542 204.577C136.22 205.295 138.955 202.963 141.242 197.111C141.668 196.079 141.691 195.878 141.399 195.653C141.242 195.519 140.144 194.689 138.978 193.815C136.937 192.268 136.87 192.178 136.623 191.012C135.928 187.649 134.246 184.936 131.062 181.886C128.237 179.173 128.237 179.173 127.721 180.406Z" fill="black"/>
<path d="M194.9 181.415C194.631 181.864 193.824 182.738 193.106 183.321C191.537 184.667 191.156 185.093 190.595 186.146C189.945 187.357 190.012 187.671 190.864 187.671C191.94 187.671 193.465 186.819 194.183 185.855C194.923 184.824 195.595 182.514 195.483 181.393L195.416 180.608L194.9 181.415Z" fill="black"/>
<path d="M100.477 185.698C99.1095 186.371 96.9345 188.59 95.9031 190.362C93.5935 194.353 93.302 199.039 95.2528 201.192C95.634 201.618 97.3157 202.582 97.3157 202.358C97.3157 202.29 96.9794 201.797 96.5533 201.259C95.5443 199.936 95.1855 198.366 95.4994 196.864C95.8134 195.362 96.1273 194.801 98.3247 191.573C99.3338 190.093 100.41 188.434 100.679 187.895C101.329 186.64 101.823 185.205 101.621 185.205C101.531 185.205 101.015 185.429 100.477 185.698Z" fill="black"/>
<path d="M14.5525 187.38C14.3059 190.16 16.4361 193.164 19.1492 193.904C20.3377 194.241 21.2122 193.882 21.7503 192.806C22.4678 191.438 22.3781 191.259 21.0328 191.259C19.5304 191.259 18.8353 190.833 17.2433 189.016C16.2118 187.828 15.158 186.998 14.6871 186.998C14.6198 186.998 14.5525 187.178 14.5525 187.38Z" fill="black"/>
<path d="M88.2567 192.021C87.0235 194.667 85.8351 196.438 84.2654 197.918C83.234 198.882 82.8528 199.106 81.9335 199.218C80.902 199.375 80.6778 199.532 78.2561 201.999C76.8434 203.434 74.5563 205.654 73.1885 206.954C69.3318 210.609 67.9415 213.187 68.6142 215.564C68.8609 216.483 70.2063 218.389 70.6099 218.389C70.6996 218.389 70.9462 217.851 71.148 217.201C71.7086 215.497 73.2334 212.851 74.8254 210.833C75.5878 209.869 78.3682 206.999 81.0141 204.443C87.158 198.523 89.0191 196.057 90.4766 192.043L91.0148 190.586L90.3645 190.25C90.0057 190.07 89.6021 189.913 89.4676 189.913C89.333 189.913 88.7949 190.855 88.2567 192.021Z" fill="black"/>
<path d="M104.267 199.375C102.787 199.801 101.8 200.855 101.262 202.604C101.128 203.075 101.15 203.075 102.181 202.896C103.639 202.604 105.119 202.828 107.855 203.77C110.299 204.577 112.339 204.801 112.81 204.331C113.012 204.129 112.945 203.86 112.496 203.165C111.263 201.326 109.447 200.003 107.272 199.443C105.792 199.061 105.388 199.061 104.267 199.375Z" fill="black"/>
<path d="M127.183 199.487C126.914 199.532 126.555 199.869 126.376 200.183C125.838 201.214 123.685 203.075 122.071 203.882C120.635 204.6 119.402 205.026 114.043 206.618C112.944 206.954 112.137 207.29 112.249 207.402C112.361 207.492 113.079 207.806 113.841 208.075C114.985 208.479 115.568 208.568 116.868 208.479C118.752 208.344 119.716 207.918 122.923 205.81C126.264 203.591 128.551 202.783 131.017 202.963L132.183 203.03L132.251 202.245C132.318 201.236 131.914 200.474 131.062 199.981C130.367 199.577 128.102 199.286 127.183 199.487Z" fill="black"/>
<path d="M97.9884 203.411C97.9884 204.241 98.7732 204.779 100.141 204.891C101.442 204.981 102.697 204.689 102.697 204.308C102.697 204.062 100.5 203.366 99.1096 203.209C98.1902 203.097 97.9884 203.142 97.9884 203.411Z" fill="black"/>
<path d="M165.818 204.308C165.257 206.035 163.867 208.703 161.804 211.976C158.239 217.672 157.252 219.846 156.512 223.658C156.086 225.945 155.929 227.066 155.167 233.838C154.629 238.412 154.023 241.551 153.171 244.174L152.521 246.08L153.62 244.869C156.086 242.111 157.05 239.129 157.97 231.483C159.001 222.761 159.584 221.169 163.082 217.784C165.683 215.228 165.93 214.802 166.939 210.923C167.253 209.712 167.769 208.142 168.083 207.447C168.396 206.752 168.71 205.743 168.778 205.227C168.89 204.443 168.822 204.218 168.329 203.725C167.926 203.322 167.5 203.142 166.984 203.142C166.244 203.142 166.177 203.209 165.818 204.308Z" fill="black"/>
<path d="M49.1063 210.541C49.1063 211.55 49.2633 213.142 49.4427 214.084C50.1826 217.694 54.7793 230.295 56.3041 232.829L56.9768 233.972L56.8647 231.17C56.6629 226.73 55.4744 222.358 52.8285 216.304C51.2365 212.694 49.353 208.748 49.2184 208.748C49.1512 208.748 49.1063 209.555 49.1063 210.541Z" fill="black"/>
<path d="M105.5 216.281C105.141 216.326 104.02 216.483 103.033 216.618C97.4726 217.335 92.5844 218.479 85.9023 220.654C81.2832 222.156 77.5162 223.03 76.6417 222.806C75.386 222.47 78.0319 224.757 80.9469 226.551C89.2882 231.64 105.747 234.847 118.505 233.883C127.564 233.188 130.255 232.111 141.668 224.488C143.686 223.143 144.606 221.663 144.269 220.295C144.18 219.914 143.709 219.577 142.565 219.084C139.179 217.559 135.636 217.156 129.044 217.492C122.541 217.851 122.093 218.053 127.362 218.255C134.134 218.501 137.027 219.062 138.596 220.429L139.359 221.057L138.686 221.08C138.327 221.08 136.556 221.192 134.762 221.326C132.968 221.461 124.896 221.595 116.824 221.618C102.406 221.685 102.069 221.685 97.9883 222.268C93.3468 222.918 87.4047 223.658 85.2072 223.882L83.7497 224.039L84.2879 223.456C85.14 222.537 86.5526 222.021 89.5124 221.528C91.0148 221.281 94.2437 220.609 96.6429 220.071C100.522 219.196 104.648 218.389 106.957 218.098C107.384 218.03 109.11 218.232 110.769 218.524C114.066 219.107 118.102 219.443 119.313 219.196C119.739 219.129 120.456 218.838 120.905 218.546L121.734 218.053H118.326C115.052 218.03 114.806 217.985 112.003 217.178C109.245 216.371 107.002 216.08 105.5 216.281ZM134.313 223.008C135.166 223.344 135.21 223.412 135.21 224.308C135.188 226.192 133.932 227.941 131.959 228.815C130.277 229.555 129.179 229.779 123.954 230.385C121.331 230.699 117.205 231.214 114.806 231.528C109.289 232.246 105.298 232.448 103.303 232.089C102.473 231.954 100.253 231.394 98.3695 230.833C96.5084 230.295 93.7952 229.69 92.3826 229.51C89.2434 229.062 88.4137 228.86 87.4271 228.187C86.5078 227.582 86.0593 226.551 86.5526 226.214C87.2926 225.743 91.0596 224.69 93.1674 224.376C97.0241 223.77 100.163 223.703 110.052 223.995C120.703 224.308 123.73 224.174 127.699 223.232C130.389 222.582 133.013 222.492 134.313 223.008Z" fill="black"/>
<path d="M88.6828 233.143C93.1001 237.425 100.679 241.192 106.958 242.246C112.182 243.098 119.806 243.12 123.438 242.268C125.344 241.842 126.309 241.282 128.484 239.354C129.403 238.524 131.174 237.156 132.408 236.327C133.641 235.475 134.897 234.533 135.188 234.219L135.726 233.636H135.143C134.269 233.636 131.825 234.6 129.268 235.968C125.412 238.008 122.609 238.815 117.676 239.264C108.617 240.094 97.3157 237.425 88.9519 232.448C87.9877 231.865 87.1132 231.394 87.0459 231.394C86.9562 231.394 87.6962 232.179 88.6828 233.143Z" fill="black"/>
<path d="M115.546 250.228C112.541 250.565 109.985 251.417 109.222 252.313C108.998 252.605 109.267 252.672 111.375 252.807C113.976 252.986 120.075 252.829 123.954 252.448C126.309 252.246 128.237 251.596 128.416 250.991C128.596 250.452 118.707 249.847 115.546 250.228Z" fill="black"/>
</svg>
